<?xml version="1.0" encoding="iso-8859-1"?>
<!-- Generator: Adobe Illustrator 19.0.0, SVG Export Plug-In . SVG Version: 6.00 Build 0)  -->
<svg version="1.1" id="Layer_1" xmlns="http://www.w3.org/2000/svg" xmlns:xlink="http://www.w3.org/1999/xlink" x="0px" y="0px"
	 viewBox="0 0 344.785 344.785" style="enable-background:new 0 0 344.785 344.785;" xml:space="preserve">
<g fill="rgb(100, 100, 100)">
	<path d="M254.725,222.206l-43.444-9.656v-13.728c16.789-12.117,27.778-31.794,27.778-54.039V111.45h5.556v-45.4
		c0-4.778-0.806-9.422-2.278-13.822l24.5-7.211v23.011c-6.45,2.3-11.111,8.411-11.111,15.644v16.667h33.333V83.672
		c0-7.233-4.661-13.344-11.111-15.644V41.75l6.944-2.044L172.392,0l-112.5,39.706l42.556,12.517
		c-1.472,4.406-2.278,9.05-2.278,13.828v45.4h5.556v33.333c0,22.244,10.989,41.922,27.778,54.039v13.728l-43.444,9.65
		c-33.3,7.406-56.556,36.389-56.556,70.506v52.078h277.778v-52.078C311.28,258.589,288.025,229.606,254.725,222.206z
		 M272.392,78.116c3.062,0,5.556,2.494,5.556,5.556v5.556h-0.001h-11.111v-5.556C266.835,80.611,269.329,78.116,272.392,78.116z
		 M96.002,38.75l76.389-26.961L248.78,38.75l-11.361,3.339c-1.6-2.417-3.45-4.694-5.544-6.789l-1.622-1.628H114.535l-1.628,1.628
		c-2.094,2.094-3.944,4.372-5.544,6.789L96.002,38.75z M111.28,66.05L111.28,66.05c0.001-7.9,2.812-15.372,7.962-21.267h106.3
		c5.15,5.9,7.961,13.367,7.961,21.267v34.289h-5.556H116.835h-5.556V66.05z M116.835,144.783V111.45h111.111v33.333
		c0,30.633-24.922,55.556-55.556,55.556C141.757,200.339,116.835,175.417,116.835,144.783z M172.392,221.906l-27.778-13.889v-2.706
		c8.467,3.9,17.855,6.139,27.778,6.139c9.922,0,19.311-2.239,27.778-6.139v2.706L172.392,221.906z M196.536,222.261l-9.095,16.667
		l-6.611-8.817L196.536,222.261z M163.958,230.106l-6.611,8.817l-9.095-16.667L163.958,230.106z M116.835,333.673h-16.667V311.45
		H89.057v22.222H44.613v-40.966c0-26.722,16.883-49.706,41.744-57.933l30.478,55.872V333.673z M166.837,333.672h-38.889v-45.861
		L97.47,231.939l38.711-8.606l30.656,56.2V333.672z M163.186,249.644l9.206-12.272l9.206,12.272l-9.206,16.872L163.186,249.644z
		 M216.835,333.672h-38.889v-54.139l30.656-56.194l38.711,8.6l-30.478,55.872V333.672z M300.168,333.672h-44.444V311.45h-11.111
		v22.222h-16.667v-43.028l30.478-55.872c24.861,8.228,41.744,31.211,41.744,57.933V333.672z"/>
</g>
</svg>
