<?xml version="1.0" encoding="iso-8859-1"?>
<!-- Generator: Adobe Illustrator 19.0.0, SVG Export Plug-In . SVG Version: 6.00 Build 0)  -->
<svg version="1.1" id="Layer_1" xmlns="http://www.w3.org/2000/svg" xmlns:xlink="http://www.w3.org/1999/xlink" x="0px" y="0px"
	 viewBox="0 0 344.445 344.445" style="enable-background:new 0 0 344.445 344.445;" xml:space="preserve">
<g fill="rgb(100, 100, 100)">
	<path d="M194.446,55.556V33.333h-44.444v22.222c0,12.256,9.967,22.223,22.222,22.223
		C184.48,77.778,194.446,67.811,194.446,55.556z M161.113,55.555V44.444h22.222v11.111c0,6.128-4.983,11.111-11.111,11.111
		S161.113,61.683,161.113,55.555z"/>
	<circle cx="172.223" cy="277.778" r="5.556"/>
	<circle cx="172.223" cy="300" r="5.556"/>
	<circle cx="172.223" cy="322.222" r="5.556"/>
	<path d="M272.224,228.4v-11.733c0-9.189-7.478-16.667-16.667-16.667h-11.111c-8.939,0-16.2,7.089-16.594,15.933l-16.739-3.722
		v-13.728c16.789-12.117,27.778-31.794,27.778-54.039V100V86.767l23.772-11.889c5.9-2.95,9.561-8.878,9.561-15.467
		c0-8.167-5.567-15.106-13.544-16.878l-22.311-4.961c-10.739-2.389-20.522-8.356-27.567-16.794l-4.978-5.978
		C195.985,5.394,184.468,0,172.223,0c-12.244,0-23.761,5.394-31.606,14.806l-4.972,5.967c-7.05,8.45-16.833,14.417-27.567,16.8
		l-22.317,4.961c-7.972,1.778-13.539,8.717-13.539,16.878c0,6.589,3.661,12.517,9.561,15.467l23.772,11.889V100v44.444
		c0,22.244,10.989,41.922,27.778,54.039v13.728l-43.444,9.65c-33.3,7.406-56.556,36.389-56.556,70.506v52.078h277.778v-52.078
		C311.113,265.472,295.952,240.772,272.224,228.4z M238.891,218.388v-1.721c0-3.067,2.489-5.556,5.556-5.556h11.111
		c3.067,0,5.556,2.489,5.556,5.556v6.494v21.283c0,3.067-2.489,5.556-5.556,5.556h-11.111c-3.067,0-5.556-2.489-5.556-5.556
		V218.388z M227.781,96.739L227.781,96.739c-16.634,9.372-35.407,14.372-54.534,14.372h-2.039
		c-19.15,0-37.933-5.006-54.533-14.372V85.806c16.439,5.739,33.6,8.639,51.106,8.639h8.889c17.494,0,34.656-2.894,51.111-8.633
		V96.739z M105.557,69.589v4.75l-18.805-9.4c-2.106-1.05-3.417-3.172-3.417-5.528c0-2.917,1.989-5.4,4.839-6.028l22.322-4.961
		c13.111-2.922,25.078-10.217,33.683-20.539l4.978-5.967c5.717-6.867,14.128-10.806,23.067-10.806
		c8.939,0,17.35,3.939,23.067,10.8l4.978,5.978c8.606,10.317,20.567,17.611,33.683,20.533l22.317,4.961
		c2.856,0.633,4.844,3.111,4.844,6.028c0,2.356-1.311,4.478-3.417,5.528l-18.806,9.406V69.55l-8.572,3.456
		c-17.139,6.85-35.189,10.328-53.65,10.328h-8.889c-18.461,0-36.511-3.478-53.661-10.339L105.557,69.589z M116.669,144.444v-35.1
		c16.9,8.428,35.567,12.878,54.533,12.878h2.039c18.944,0,37.578-4.439,54.533-12.889v35.111
		c0,30.633-24.922,55.556-55.556,55.556C141.584,200,116.669,175.078,116.669,144.444z M144.446,214.366v-9.394
		c8.467,3.9,17.856,6.139,27.778,6.139s19.311-2.239,27.778-6.139v9.394l-27.778,27.778L144.446,214.366z M163.508,249.139
		L142.713,263l-7.944-39.728l2.35-0.522L163.508,249.139z M207.33,222.75l2.35,0.522L201.735,263l-20.794-13.861L207.33,222.75z
		 M44.446,292.361c0-1.167,0.084-2.317,0.15-3.472h10.961v8.333c0,6.956-3.328,13.6-8.889,17.778l-2.222,1.667V292.361z
		 M300.002,333.334h-44.444v-0.001v-22.222h-11.111v22.222H100.002v-22.222H88.89v22.222H44.446v-2.778l8.894-6.667
		c8.344-6.261,13.328-16.233,13.328-26.667v-19.444H46.213c5.378-22.244,22.817-39.894,46.089-45.061l31.622-7.028l11.156,55.761
		l37.144-24.772l37.156,24.772l11.156-55.761l7.244,1.606v17.15c0,9.189,7.478,16.667,16.667,16.667v22.222h11.111v-22.222
		c9.189,0,16.667-7.478,16.667-16.667v-3.233c13.006,8.478,22.25,21.633,25.961,36.567H277.78v19.444
		c0,10.433,4.983,20.406,13.333,26.667l8.889,6.667V333.334z M300.002,316.667L297.785,315
		c-5.567-4.178-8.894-10.822-8.894-17.778v-8.333h10.889c0.066,1.161,0.222,2.305,0.222,3.478V316.667z"/>
</g>
</svg>
