<?xml version="1.0" encoding="iso-8859-1"?>
<!-- Generator: Adobe Illustrator 19.0.0, SVG Export Plug-In . SVG Version: 6.00 Build 0)  -->
<svg version="1.1" id="Capa_1" xmlns="http://www.w3.org/2000/svg" xmlns:xlink="http://www.w3.org/1999/xlink" x="0px" y="0px"
	 viewBox="0 0 498.704 498.704" style="enable-background:new 0 0 498.704 498.704;" xml:space="preserve">
<g fill="rgb(100, 100, 100)">
	<path d="M154.704,417.352h64v32h-40v48h144v-48h-40v-32h64v-144h-192V417.352z M306.704,465.352v16h-112v-16H306.704z
		 M234.704,449.352v-32h32v32H234.704z M170.704,289.352h160v112h-160V289.352z"/>
	<rect x="186.704" y="305.352" width="128" height="16"/>
	<rect x="218.704" y="337.352" width="96" height="16"/>
	<rect x="186.704" y="337.352" width="16" height="16"/>
	<rect x="298.704" y="369.352" width="16" height="16"/>
	<rect x="186.704" y="369.352" width="96" height="16"/>
	<path d="M364.168,1.368l-1.304,6.408c-0.952,4.632-24.576,113.576-152.16,113.576c-114.832,0-169.816-53.136-170.344-53.656
		l-4.64-4.64L0,86.872l3.792,6.504c1.936,3.32,40.616,67.296,150.912,91.128v24.848h-80v48h16v240h16v-240h256v-16h-272v-16h320
		v16h-32v16h16v240h16v-240h16v-48h-80v-26.76c98.8-23.016,152-82.52,152-173.24v-8L364.168,1.368z M21.968,91.456l12.024-8.016
		c4.2,3.504,11.096,8.752,20.696,14.616L41.04,111.704C31.92,103.464,25.68,96.24,21.968,91.456z M330.704,209.352h-160v-21.816
		c21.48,3.648,45.368,5.816,72,5.816c32.216,0,61.56-2.52,88-7.408V209.352z M481.232,33.352h-78.528v16h75.8
		c-13.216,59.752-57.848,99.288-131.8,117.104v-21.104h-16v24.536c-26.112,4.944-55.448,7.464-88,7.464
		c-26.768,0-50.688-2.296-72-6.152v-25.848h-16v22.512c-46.768-10.832-79.56-29.2-101.304-45.888l15.808-15.808
		c29.744,15.232,76.4,31.184,141.496,31.184c89.792,0,133.168-50.8,152.912-88h23.088v-16H371.16
		c2.696-6.536,4.536-12.072,5.696-16h105.696C482.344,22.832,481.872,28.144,481.232,33.352z"/>
</g>
</svg>
