<?xml version="1.0" encoding="iso-8859-1"?>
<!-- Generator: Adobe Illustrator 19.0.0, SVG Export Plug-In . SVG Version: 6.00 Build 0)  -->
<svg version="1.1" id="Layer_1" xmlns="http://www.w3.org/2000/svg" xmlns:xlink="http://www.w3.org/1999/xlink" x="0px" y="0px"
	 viewBox="0 0 300 300" style="enable-background:new 0 0 300 300;" xml:space="preserve">
<g fill="rgb(100, 100, 100)">
	<rect x="43.548" y="256.452" width="9.677" height="9.677"/>
	<rect x="24.194" y="256.452" width="9.677" height="9.677"/>
	<rect x="82.258" y="256.452" width="9.677" height="9.677"/>
	<rect x="101.613" y="256.452" width="9.677" height="9.677"/>
	<rect x="140.323" y="256.452" width="9.677" height="9.677"/>
	<rect x="246.774" y="256.452" width="9.677" height="9.677"/>
	<rect x="266.129" y="256.452" width="9.677" height="9.677"/>
	<rect x="222.581" y="169.355" width="9.677" height="9.677"/>
	<rect x="111.29" y="169.355" width="9.677" height="19.355"/>
	<rect x="67.742" y="203.226" width="9.677" height="9.677"/>
	<path d="M295.161,290.323v-53.226H261.29v-38.71h4.839v-9.677h-14.516v-32.497c3.121-4.732,4.839-10.161,4.839-15.89
		c0-9.581-7.389-15.498-13.911-20.715c-5.521-4.413-10.282-8.221-10.282-13.156V82.258h-9.677v24.194
		c0,4.935-4.761,8.744-10.282,13.156c-6.523,5.216-13.911,11.134-13.911,20.715c0,1.132,0.14,2.245,0.266,3.353
		c-2.874-2.758-5.105-5.439-5.105-8.192v-38.71h4.839v-9.677h-11.371l-17.661-39.735v-4.703c5.618-2.003,9.677-7.326,9.677-13.626
		c0-4.819-3.677-8.477-6.634-11.419c-1.084-1.084-2.681-2.685-3.044-3.44V0h-9.677v14.173c-0.363,0.755-1.96,2.356-3.044,3.44
		c-2.956,2.942-6.634,6.6-6.634,11.419c0,6.3,4.06,11.623,9.677,13.626v4.708l-17.661,39.731h-11.371v9.677h4.839v26.337
		c-1.398-1.215-2.835-2.381-4.234-3.503c-5.521-4.413-10.282-8.221-10.282-13.156V82.258h-9.677v24.194
		c0,4.935-4.761,8.744-10.282,13.156c-6.523,5.216-13.911,11.134-13.911,20.715c0,5.724,1.723,11.158,4.839,15.89v0.769
		c-1.398-1.215-2.835-2.381-4.234-3.503c-5.521-4.413-10.282-8.221-10.282-13.156v-24.194h-9.677v24.194
		c0,4.931-4.761,8.744-10.282,13.156c-6.518,5.216-13.911,11.134-13.911,20.715c0,5.729,1.718,11.158,4.839,15.89v47.013H4.839
		v53.226H0V300h4.839h4.839h280.645h4.839H300v-9.677H295.161z M218.347,127.166c3.135-2.506,6.455-5.192,9.073-8.352
		c2.618,3.16,5.937,5.84,9.073,8.352c5.521,4.413,10.282,8.221,10.282,13.156c0,3.455-0.939,6.745-2.647,9.677h-33.421
		c-1.703-2.937-2.642-6.227-2.642-9.677C208.065,135.387,212.826,131.579,218.347,127.166z M241.935,159.678v29.032h-29.032
		v-29.032H241.935z M222.363,237.096h-47.952l23.976-30.827L222.363,237.096z M179.032,215.389v-36.358h24.194v0.001v17.695
		l-4.839-6.223L179.032,215.389z M188.71,147.198c1.955,2.328,4.248,4.423,6.44,6.397c4.152,3.74,8.076,7.268,8.076,10.921
		c0,1.747-0.629,2.666-2.361,4.839H176.55c-1.727-2.173-2.356-3.097-2.356-4.839c0-3.653,3.924-7.181,8.076-10.921
		C184.462,151.621,186.755,149.526,188.71,147.198z M159.677,29.066c0.136-0.963,2.507-3.329,3.784-4.597
		c0.348-0.353,0.706-0.706,1.055-1.065c0.348,0.358,0.706,0.706,1.055,1.06c1.277,1.273,3.648,3.639,3.784,4.568
		c0,2.666-2.173,4.839-4.839,4.839S159.677,31.698,159.677,29.066z M164.516,60.3l11.908,26.797h-23.821L164.516,60.3z
		 M140.322,156.213c3.121-4.732,4.839-10.161,4.839-15.89V96.774h14.516v48.387h9.677V96.774h14.516v38.71
		c0,3.648-3.924,7.181-8.076,10.921c-5.289,4.756-11.279,10.147-11.279,18.111c0,5.284,2.458,8.366,4.631,11.076
		c0.068,0.087,0.14,0.179,0.208,0.266v22.529h-29.032V156.213z M140.323,208.065v29.032h-19.355v-29.032H140.323z
		 M107.056,127.166c3.135-2.506,6.455-5.192,9.073-8.352c2.618,3.16,5.937,5.84,9.073,8.352
		c5.521,4.413,10.282,8.221,10.282,13.156c0,3.455-0.939,6.745-2.647,9.677H99.416c-1.703-2.937-2.642-6.227-2.642-9.677
		C96.774,135.387,101.535,131.579,107.056,127.166z M96.774,190.084c3.121-4.737,4.839-10.166,4.839-15.89v-14.517h29.032v38.71
		H96.774V190.084z M96.774,208.065h14.516v29.032H96.774V208.065z M63.508,161.037c3.135-2.506,6.455-5.192,9.073-8.352
		c2.618,3.16,5.937,5.84,9.073,8.352c5.516,4.413,10.282,8.221,10.282,13.156c0,3.45-0.939,6.745-2.647,9.677H55.868
		c-1.703-2.932-2.642-6.223-2.642-9.677C53.226,169.258,57.992,165.45,63.508,161.037z M87.097,193.548v43.548H58.065v-43.548
		H87.097z M159.677,290.322h-29.032v-33.871h-9.677v33.871H72.581v-33.871h-9.677v33.871H14.516v-43.548h145.161V290.322z
		 M150,237.097v-29.032h19.355v19.766l-7.21,9.266H150z M188.71,290.323v-19.355c0-5.337,4.34-9.677,9.677-9.677
		c5.337,0,9.677,4.34,9.677,9.677v19.355H188.71z M227.42,290.323h-9.677v-19.355c-0.001-10.674-8.682-19.355-19.356-19.355
		s-19.355,8.681-19.355,19.355v19.355h-9.677v-43.548h58.065V290.323z M212.903,209.168v-10.781h38.71v38.71h-16.984
		L212.903,209.168z M285.484,290.323h-48.387v-43.548h48.387V290.323z"/>
</g>
</svg>
