<svg enable-background="new 0 0 64 64" height="512" viewBox="0 0 64 64" width="512" xmlns="http://www.w3.org/2000/svg"><g fill="rgb(100, 100, 100)"><path d="m59 25v-13l-6.667 5 4.667 3.5v6.5h-2v-2h-4v-13l-6.667 5 4.667 3.5v6.5h-2v-2h-4v-6.764l3-6v-11.236h-8v4h-2v-4h-8v4h-2v-4h-8v11.236l3 6v6.764h-4v2h-2v-15l-6.667 5 4.667 3.5v4.5h-4v2h-2v-15l-6.667 5 4.667 3.5v4.5h-4v38h62v-38zm-3.333-8 1.333-1v2zm-8 0 1.333-1v2zm-2.667 10v2h6v-2h2v2h6v-2h2v4h-18v-4zm0 34h-2v-2h2zm-2-18h4v2h-4zm-2 18h-2v-9c0-3.859-3.14-7-7-7s-7 3.141-7 7v9h-2v-34h6v-6h-6v-2h18v8h-8v6h8zm-10 0h-4v-9c0-2.414 1.721-4.434 4-4.899zm2-13.899c2.279.465 4 2.484 4 4.899v9h-4zm-12-.101h-4v-2h4zm0 14h-2v-2h2zm2-38h4v2h-4zm12 8v-2h6v2zm-11-28v4h6v-4h4v4h6v-4h4v8h-24v-8zm-3.382 10h22.764l-2 4h-18.764zm-8.951 4 1.333-1v2zm-8 0 1.333-1v2zm1.333 10v2h6v-2h2v2h6v-2h2v4h-18v-4zm-2 12h6v2h-6zm0 4h8v-6h-8v-4h18v10h-6v6h6v8h-4v4h-14zm44 18v-4h-4v-10h6v-6h-6v-8h18v2h-8v6h8v20zm14-24v2h-6v-2z"/><path d="m5 57h10v-6h-10zm2-4h6v2h-6z"/><path d="m49 57h10v-6h-10zm2-4h6v2h-6z"/><path d="m25 41h8v-6h-8zm2-4h4v2h-4z"/></g></svg>