<?xml version="1.0" encoding="iso-8859-1"?>
<!-- Generator: Adobe Illustrator 19.0.0, SVG Export Plug-In . SVG Version: 6.00 Build 0)  -->
<svg version="1.1" id="Capa_1" xmlns="http://www.w3.org/2000/svg" xmlns:xlink="http://www.w3.org/1999/xlink" x="0px" y="0px"
	 viewBox="0 0 496 496" style="enable-background:new 0 0 496 496;" xml:space="preserve">
<g fill="rgb(100, 100, 100)">
	<path d="M286.144,81.856c0-9.616-3.744-18.656-10.544-25.456c-6.8-6.8-15.84-10.544-25.456-10.544
		c-9.616,0-18.656,3.744-25.456,10.544L196.4,84.68c-6.8,6.808-10.544,15.84-10.544,25.456c0,9.616,3.744,18.656,10.544,25.456
		c6.8,6.808,15.84,10.544,25.456,10.544c9.616,0,18.656-3.744,25.456-10.544l28.288-28.28
		C282.4,100.504,286.144,91.472,286.144,81.856z M264.288,96L236,124.28c-7.552,7.56-20.728,7.56-28.288,0
		c-3.776-3.776-5.856-8.8-5.856-14.144c0-5.336,2.08-10.36,5.856-14.144L236,67.72c3.776-3.784,8.8-5.856,14.144-5.856
		c5.344,0,10.368,2.08,14.144,5.856s5.856,8.8,5.856,14.144C270.144,87.192,268.064,92.216,264.288,96z"/>
	<path d="M320,144V0H0v192c0,88.224,71.776,160,160,160c5.704,0,11.336-0.328,16.888-0.912C184.544,432.848,253.064,496,336,496
		c88.224,0,160-71.776,160-160V144H320z M344,160h12.688l42.2,42.2L382.2,218.888l-38.2-38.2V160z M410.2,213.504l0.144,0.144
		l3.24-3.24c3.56-2.896,7.912-4.552,12.56-4.552c5.344,0,10.368,2.08,14.144,5.856s5.856,8.8,5.856,14.144
		c0,5.336-2.08,10.36-5.856,14.144L412,268.28c-7.56,7.568-20.736,7.552-28.288,0c-3.776-3.776-5.856-8.8-5.856-14.144
		c0-5.336,2.08-10.36,5.856-14.144L410.2,213.504z M344,203.312l27.04,27.04c-5.856,6.592-9.176,14.912-9.176,23.792
		c0,3.44,0.64,6.752,1.568,9.976L344,244.688V203.312z M152,16v20.688l-38.2,38.2L97.112,58.2l42.2-42.2H152z M124.96,86.352
		L152,59.312v41.376l-19.424,19.424c0.928-3.216,1.568-6.528,1.568-9.976C134.144,101.256,130.816,92.944,124.96,86.352z
		 M118.144,110.144c0,5.344-2.08,10.368-5.856,14.144c-7.552,7.56-20.728,7.56-28.288,0L55.712,96
		c-3.776-3.784-5.856-8.808-5.856-14.144c0-5.344,2.08-10.368,5.856-14.144c3.776-3.784,8.8-5.856,14.144-5.856
		c4.648,0,9,1.656,12.552,4.552l3.24,3.24l0.144-0.144L112.288,96C116.064,99.784,118.144,104.808,118.144,110.144z M16,16h44.688
		L16,60.688V16z M16,83.312L83.312,16h33.376L83.944,48.744c-4.4-1.872-9.16-2.88-14.088-2.88C60.24,45.856,51.2,49.6,44.4,56.408
		C37.6,63.2,33.856,72.24,33.856,81.856c0,4.92,1.008,9.68,2.888,14.08L16,116.688V83.312z M16,139.312l30.2-30.2L62.888,125.8
		L16,172.688V139.312z M16.16,195.152l58.192-58.192c6.584,5.856,14.904,9.176,23.792,9.176c3.44,0,6.752-0.64,9.976-1.568
		l-86.568,86.568C18.296,219.648,16.432,207.608,16.16,195.152z M42.168,274.52c-5.808-8.272-10.856-17.12-14.84-26.536
		L152,123.312v41.376L96.808,219.88c-14.2-7.064-31.352-4.12-41.168,7.28c-4.928,5.728-7.64,12.792-7.64,19.896
		c0,6.872,2.608,12.272,5.344,16.288L42.168,274.52z M152,187.312v31.376l-17.104,17.104c-8.264-2.424-16.12-5.528-22.84-8.536
		L152,187.312z M52.184,287.128l12.32-12.312c5.152,3.912,11.024,7.056,17.608,9.072c1.08,0.328,2.4,0.704,3.632,1.064
		l-17.72,17.72C62.32,297.936,57.088,292.68,52.184,287.128z M81.032,312.272l22.728-22.728
		c8.864,1.968,19.176,3.784,30.384,4.992l-30.136,30.128C95.936,321.24,88.272,317.048,81.032,312.272z M152,335.592
		c-10.736-0.592-21.152-2.312-31.144-5.144L152,299.312V335.592z M86.8,268.592c-7.624-2.336-14.04-6.496-18.568-12.032
		c-2.968-3.632-4.232-6.472-4.232-9.504c0-4.192,2.048-7.464,3.76-9.456c5.192-6.032,14.648-7.376,22.496-3.176
		C105.352,242.488,134.488,256,160,256c25.512,0,54.648-13.512,69.744-21.576c7.848-4.184,17.296-2.84,22.496,3.176
		c1.712,1.992,3.76,5.256,3.76,9.456c0,3.032-1.264,5.872-4.224,9.504c-4.528,5.528-10.952,9.696-18.568,12.032
		C219.304,272.848,191.304,280,160,280S100.696,272.848,86.8,268.592z M167.992,335.592v-39.808H168
		c30.072-1.064,56.336-7.736,69.896-11.896c10.648-3.264,19.728-9.208,26.264-17.2c3.368-4.128,7.84-10.64,7.84-19.632
		c0-7.104-2.712-14.168-7.64-19.888c-10.048-11.664-27.784-14.552-42.16-6.848c-9.832,5.24-33.128,16.608-54.208,19.136V16h136
		v176C303.992,268.696,243.664,331.408,167.992,335.592z M328,479.616c-71.32-3.928-129.104-59.616-135.296-131
		C265.288,333.48,320,269.016,320,192v-32h8v223.448c-21.08-2.528-44.376-13.896-54.2-19.136
		c-14.384-7.704-32.12-4.816-42.168,6.848c-4.92,5.728-7.632,12.792-7.632,19.896c0,8.992,4.472,15.504,7.84,19.632
		c6.528,7.992,15.616,13.936,26.264,17.2c13.56,4.16,39.824,10.824,69.896,11.896V479.616z M262.8,412.592
		c-7.624-2.336-14.04-6.496-18.568-12.032c-2.968-3.632-4.232-6.472-4.232-9.504c0-4.192,2.048-7.464,3.76-9.456
		c3.168-3.672,7.912-5.608,12.92-5.608c3.208,0,6.512,0.8,9.584,2.432C281.352,386.488,310.488,400,336,400
		c25.512,0,54.648-13.512,69.744-21.576c7.848-4.184,17.304-2.84,22.496,3.176c1.712,1.992,3.76,5.256,3.76,9.456
		c0,3.032-1.264,5.872-4.232,9.504c-4.528,5.528-10.952,9.696-18.56,12.032C395.304,416.848,367.304,424,336,424
		S276.696,416.848,262.8,412.592z M344,362.688v-31.376l39.936,39.936c-6.72,3.008-14.576,6.112-22.832,8.544L344,362.688z
		 M344,479.592v-36.28l31.144,31.136C365.16,477.28,354.736,479,344,479.592z M391.992,468.672l-30.136-30.136
		c11.208-1.208,21.528-3.032,30.384-4.984l22.728,22.728C407.72,461.056,400.064,465.248,391.992,468.672z M427.984,446.672
		l-17.72-17.72c1.232-0.36,2.552-0.736,3.632-1.064c6.576-2.016,12.448-5.16,17.6-9.072l12.32,12.312
		C438.912,436.68,433.68,441.936,427.984,446.672z M453.824,418.52l-11.176-11.176c2.744-4.016,5.352-9.416,5.352-16.288
		c0-7.104-2.712-14.168-7.64-19.888c-9.824-11.4-26.968-14.344-41.168-7.28l-55.2-55.2v-41.376l124.672,124.672
		C464.672,401.4,459.632,410.248,453.824,418.52z M474.456,375.144l-86.568-86.568c3.216,0.928,6.528,1.568,9.976,1.568
		c8.888,0,17.2-3.32,23.792-9.176l58.192,58.192C479.576,351.608,477.712,363.656,474.456,375.144z M480,316.688L433.112,269.8
		l16.688-16.688l30.2,30.2V316.688z M480,260.688l-20.744-20.744c1.872-4.4,2.888-9.16,2.888-14.08
		c0-9.616-3.744-18.656-10.544-25.456c-6.8-6.808-15.84-10.544-25.456-10.544c-4.928,0-9.688,1.008-14.088,2.88L379.312,160
		h33.376L480,227.312V260.688z M480,204.688L435.312,160H480V204.688z"/>
</g>
</svg>
