<?xml version="1.0" encoding="iso-8859-1"?>
<!-- Generator: Adobe Illustrator 19.0.0, SVG Export Plug-In . SVG Version: 6.00 Build 0)  -->
<svg version="1.1" id="Layer_1" xmlns="http://www.w3.org/2000/svg" xmlns:xlink="http://www.w3.org/1999/xlink" x="0px" y="0px"
	 viewBox="0 0 292.397 292.397" style="enable-background:new 0 0 292.397 292.397;" xml:space="preserve">
<g fill="rgb(100, 100, 100)">
	<path d="M216.511,264.272h-14.063v-9.375h9.375v-9.375h-18.75v-18.75h-9.375V125.588l16.003-16.003L179.01,88.894l-2.77,2.77
		c-2.194-3.098-5.78-5.517-11.292-5.517h-18.75h-21.094l-17.578-23.438h15.234v-4.688c0-12.923,10.514-23.438,23.438-23.438
		c12.923,0,23.438,10.514,23.438,23.438v4.688h23.438v-9.375h-14.395c-0.797-5.55-3.014-10.636-6.23-14.93l14.564-14.564
		l-6.628-6.628L165.83,31.767c-4.294-3.22-9.398-5.391-14.944-6.188V6.459h-9.375v19.12c-5.545,0.797-10.65,2.967-14.944,6.183
		l-14.555-14.555l-6.628,6.628l14.564,14.569c-3.22,4.294-5.433,9.38-6.23,14.93H100.05c-1.584-1.472-3.413-2.597-5.414-3.384
		v-5.991h9.375v-9.375h-9.375v-0.862c5.442-1.941,9.375-7.097,9.375-13.2c0-6.675-8.297-15.056-10.842-17.466L89.948,0
		l-3.225,3.056c-2.541,2.409-10.838,10.791-10.838,17.466c0,6.103,3.933,11.259,9.375,13.2v0.862h-9.375v9.375h9.375v5.002
		c-7.988,1.477-14.063,8.466-14.063,16.87c0,5.091,1.753,10.083,4.931,14.058l32.569,40.716v106.167h-9.375v18.75h-18.75v9.375
		h9.375v9.375H75.886v18.75h-75v9.375h75h140.625h56.25v-9.375h-56.25V264.272z M179.011,102.15l7.434,7.434l-26.184,26.184
		l-7.434-7.434L179.011,102.15z M89.953,13.252c2.611,3.009,4.617,6.047,4.683,7.28c-0.005,2.578-2.105,4.678-4.688,4.678
		c-2.588,0-4.688-2.105-4.688-4.678C85.322,19.308,87.333,16.27,89.953,13.252z M83.452,74.039
		c-1.856-2.325-2.878-5.236-2.878-8.203c0-3.197,1.936-5.939,4.688-7.148v8.709h9.375v-6.248l25.781,34.373h44.531
		c2.78,0,3.97,1.402,4.43,3.005l-29.808,29.808l16.003,16.003v30.872h9.375v-30.872l9.375-9.375v91.809h-56.25v-7.434h-0.001
		l36.127-36.127l-6.628-6.628l-10.748,10.748v-21.497h-9.375v30.872l-9.375,9.375v-80.494l17.377-17.377l-6.628-6.628
		l-12.966,12.966L83.452,74.039z M99.323,254.897h65.625v-9.375h-56.25v-9.375h75v9.375h-9.375v9.375h18.75v9.375h-93.75V254.897z
		 M207.136,283.022H85.261v-9.375h121.875V283.022z"/>
	<path d="M164.948,67.397v-9.375c0-10.341-8.409-18.75-18.75-18.75s-18.75,8.409-18.75,18.75v9.375
		c0,10.341,8.409,18.75,18.75,18.75S164.948,77.737,164.948,67.397z M155.573,67.397c0,5.17-4.205,9.375-9.375,9.375
		s-9.375-4.205-9.375-9.375v-9.375c0-5.17,4.205-9.375,9.375-9.375s9.375,4.205,9.375,9.375V67.397z"/>
	<rect x="127.448" y="147.084" width="9.375" height="9.375"/>
	<rect x="160.261" y="193.959" width="9.375" height="9.375"/>
	<rect x="282.136" y="283.022" width="9.375" height="9.375"/>
</g>
</svg>
