<svg enable-background="new 0 0 512 512" height="512" viewBox="0 0 512 512" width="512" xmlns="http://www.w3.org/2000/svg"><g fill="rgb(100, 100, 100)"><path d="m407.528 319.876c-11.801-11.8-27.49-18.299-44.18-18.299-16.688 0-32.378 6.499-44.179 18.3l-15.609 15.609c-13.774 13.776-36.19 13.776-49.967 0l-77.046-77.046c-6.674-6.673-10.349-15.546-10.349-24.983s3.675-18.31 10.349-24.983l15.61-15.611c24.359-24.36 24.359-63.997 0-88.357l-46.173-46.172c-11.801-11.801-27.49-18.3-44.179-18.3s-32.379 6.499-44.18 18.3l-15.824 15.825c-26.955 26.956-41.801 62.795-41.801 100.916s14.846 73.96 41.801 100.915l65.3 65.301c3.906 3.905 10.238 3.905 14.143 0s3.905-10.237 0-14.142l-65.3-65.301c-23.179-23.177-35.944-53.994-35.944-86.773 0-30.926 11.367-60.103 32.118-82.769l106.375 106.375c-7.962 9.816-12.294 21.961-12.294 34.775 0 14.78 5.756 28.675 16.206 39.125l77.046 77.046c20.179 20.177 52.19 21.48 73.9 3.912l106.373 106.373c-48.092 43.982-123.004 42.714-169.54-3.821l-65.303-65.303c-3.905-3.905-10.237-3.905-14.143 0-3.905 3.905-3.905 10.237 0 14.143l65.303 65.303c27.823 27.822 64.369 41.733 100.916 41.733s73.093-13.911 100.916-41.733l15.827-15.828c24.359-24.36 24.359-63.997 0-88.357zm-275.685-247.401 46.173 46.172c16.562 16.562 16.562 43.511 0 60.073l-5.599 5.599-106.246-106.245 5.599-5.599c16.563-16.563 43.511-16.561 60.073 0zm307.716 367.789-5.599 5.599-106.246-106.246 5.599-5.599c16.562-16.562 43.511-16.563 60.073 0l46.173 46.172c16.561 16.563 16.561 43.511 0 60.074z"/>
<path d="m145.99 356.043c-2.631 0-5.21 1.06-7.07 2.93-1.86 1.86-2.93 4.43-2.93 7.07 0 2.63 1.069 5.21 2.93 7.07 1.86 1.86 4.439 2.93 7.07 2.93 2.64 0 5.21-1.07 7.069-2.93 1.87-1.86 2.931-4.44 2.931-7.07s-1.061-5.21-2.931-7.07c-1.859-1.87-4.429-2.93-7.069-2.93z"/>
<path d="m396.728 77.753h-17.099c-5.522 0-10 4.477-10 10s4.478 10 10 10h7.099v70c0 5.523 4.478 10 10 10s10-4.477 10-10v-80c0-5.523-4.478-10-10-10z"/>
<path d="m453.827 77.753h-17.1c-5.522 0-10 4.477-10 10s4.478 10 10 10h7.1v70c0 5.523 4.478 10 10 10 5.523 0 10-4.477 10-10v-80c0-5.523-4.477-10-10-10z"/>
<path d="m316.747 78.182c-18.271 0-33.135 14.864-33.135 33.134 0 18.271 14.864 33.134 33.135 33.134.529 0 1.053-.015 1.576-.04-6.346 9.598-12.922 14.735-13.156 14.915-4.402 3.303-5.31 9.547-2.021 13.967 1.962 2.639 4.977 4.032 8.031 4.032 2.075 0 4.168-.643 5.96-1.977 1.135-.845 27.683-21.005 32.331-58.821.269-1.698.413-3.438.413-5.211 0-18.269-14.863-33.133-33.134-33.133zm-13.135 33.134c0-7.242 5.893-13.134 13.135-13.134s13.134 5.892 13.134 13.134-5.892 13.134-13.134 13.134-13.135-5.892-13.135-13.134z"/>
<path d="m462.945.033h-177.89c-27.049 0-49.055 22.006-49.055 49.056v153.89c0 23.624 16.785 43.4 39.055 48.031v25.024c0 4.044 2.437 7.691 6.173 9.239 1.237.513 2.537.762 3.825.762 2.603 0 5.16-1.017 7.073-2.929l31.071-31.071h139.748c27.049 0 49.055-22.006 49.055-49.055v-153.891c0-27.05-22.006-49.056-49.055-49.056zm29.055 202.945c0 16.021-13.034 29.055-29.055 29.055h-143.89c-2.652 0-5.195 1.054-7.071 2.929l-16.929 16.929v-9.858c0-5.523-4.478-10-10-10-16.02 0-29.055-13.034-29.055-29.055v-153.889c0-16.021 13.034-29.055 29.055-29.055h177.891c16.02 0 29.055 13.034 29.055 29.055v153.889z"/>
</g></svg>