<?xml version="1.0" encoding="iso-8859-1"?>
<svg version="1.1" xmlns="http://www.w3.org/2000/svg" xmlns:xlink="http://www.w3.org/1999/xlink" x="0px" y="0px"
	 viewBox="0 0 405.333 405.333" style="enable-background:new 0 0 405.333 405.333;" xml:space="preserve">
<g fill="rgb(190, 190, 190)">
	<path d="M245.333,96c11.733,0,21.333-9.6,21.333-21.333s-9.6-21.333-21.333-21.333c-11.733,0-21.333,9.6-21.333,21.333
		S233.6,96,245.333,96z"/>
	<path d="M241.067,191.573c1.387,0.213,2.773,0.427,4.267,0.427c17.707,0,32-14.293,32-32s-14.293-32-32-32s-32,14.293-32,32
		c0,1.493,0.213,2.88,0.427,4.373C215.68,178.453,226.88,189.653,241.067,191.573z"/>
	<path d="M394.667,170.667c5.867,0,10.667-4.8,10.667-10.667c0-5.867-4.8-10.667-10.667-10.667c-5.867,0-10.667,4.8-10.667,10.667
		C384,165.867,388.8,170.667,394.667,170.667z"/>
	<path d="M160,21.333c5.867,0,10.667-4.8,10.667-10.667C170.667,4.8,165.867,0,160,0c-5.867,0-10.667,4.8-10.667,10.667
		C149.333,16.533,154.133,21.333,160,21.333z"/>
	<path d="M245.333,21.333c5.867,0,10.667-4.8,10.667-10.667C256,4.8,251.2,0,245.333,0c-5.867,0-10.667,4.8-10.667,10.667
		C234.667,16.533,239.467,21.333,245.333,21.333z"/>
	<path d="M330.667,96C342.4,96,352,86.4,352,74.667s-9.6-21.333-21.333-21.333c-11.733,0-21.333,9.6-21.333,21.333
		S318.933,96,330.667,96z"/>
	<path d="M160,96c11.733,0,21.333-9.6,21.333-21.333s-9.6-21.333-21.333-21.333s-21.333,9.6-21.333,21.333S148.267,96,160,96z"/>
	<path d="M330.667,181.333c11.733,0,21.333-9.6,21.333-21.333s-9.6-21.333-21.333-21.333c-11.733,0-21.333,9.6-21.333,21.333
		S318.933,181.333,330.667,181.333z"/>
	<path d="M330.667,266.667c11.733,0,21.333-9.6,21.333-21.333C352,233.6,342.4,224,330.667,224
		c-11.733,0-21.333,9.6-21.333,21.333C309.333,257.067,318.933,266.667,330.667,266.667z"/>
	<path d="M0,59.2l80.747,80.747c-2.027-0.64-3.947-1.28-6.08-1.28c-11.733,0-21.333,9.6-21.333,21.333s9.6,21.333,21.333,21.333
		S96,171.733,96,160c0-2.133-0.64-4.053-1.173-6.08l59.947,59.947C139.52,216.427,128,229.44,128,245.333
		c0,17.707,14.293,32,32,32c15.893,0,28.907-11.52,31.467-26.667l59.947,59.947c-1.92-0.64-3.947-1.28-6.08-1.28
		c-11.733,0-21.333,9.6-21.333,21.333C224,342.4,233.6,352,245.333,352c11.733,0,21.333-9.6,21.333-21.333
		c0-2.133-0.64-4.053-1.173-6.08l80.64,80.747l27.2-27.2L27.2,32L0,59.2z"/>
	<path d="M160,309.333c-11.733,0-21.333,9.6-21.333,21.333c0,11.733,9.6,21.333,21.333,21.333s21.333-9.6,21.333-21.333
		C181.333,318.933,171.733,309.333,160,309.333z"/>
	<path d="M160,384c-5.867,0-10.667,4.8-10.667,10.667c0,5.867,4.8,10.667,10.667,10.667c5.867,0,10.667-4.8,10.667-10.667
		C170.667,388.8,165.867,384,160,384z"/>
	<path d="M245.333,384c-5.867,0-10.667,4.8-10.667,10.667c0,5.867,4.8,10.667,10.667,10.667c5.867,0,10.667-4.8,10.667-10.667
		C256,388.8,251.2,384,245.333,384z"/>
	<path d="M394.667,234.667c-5.867,0-10.667,4.8-10.667,10.667C384,251.2,388.8,256,394.667,256c5.867,0,10.667-4.8,10.667-10.667
		C405.333,239.467,400.533,234.667,394.667,234.667z"/>
	<path d="M74.667,309.333c-11.733,0-21.333,9.6-21.333,21.333c0,11.733,9.6,21.333,21.333,21.333S96,342.4,96,330.667
		C96,318.933,86.4,309.333,74.667,309.333z"/>
	<path d="M10.667,149.333C4.8,149.333,0,154.133,0,160c0,5.867,4.8,10.667,10.667,10.667c5.867,0,10.667-4.8,10.667-10.667
		C21.333,154.133,16.533,149.333,10.667,149.333z"/>
	<path d="M10.667,234.667C4.8,234.667,0,239.467,0,245.333C0,251.2,4.8,256,10.667,256c5.867,0,10.667-4.8,10.667-10.667
		C21.333,239.467,16.533,234.667,10.667,234.667z"/>
	<path d="M74.667,224c-11.733,0-21.333,9.6-21.333,21.333c0,11.733,9.6,21.333,21.333,21.333S96,257.067,96,245.333
		C96,233.6,86.4,224,74.667,224z"/>
</g>
</svg>
